<svg xmlns="http://www.w3.org/2000/svg" xmlns:xlink="http://www.w3.org/1999/xlink" width="420" height="90" viewBox="0 0 420 90">
  <defs>
    <clipPath id="clip-Pomodoro">
      <rect width="420" height="90"/>
    </clipPath>
  </defs>
  <g id="Pomodoro" clip-path="url(#clip-Pomodoro)">
    <g id="Grupo_1" data-name="Grupo 1" transform="translate(-36 -30)">
      <path id="Unión_1" data-name="Unión 1" d="M36.551,84.579a36.664,36.664,0,0,1-11.674-8.025.869.869,0,0,1,.62-1.477H37.224a.866.866,0,0,1,.421.109,27.822,27.822,0,0,0,6.31,2.554,27.044,27.044,0,0,0,6.965.912,27.732,27.732,0,1,0,0-55.464,27.01,27.01,0,0,0-6.965.912,27.75,27.75,0,0,0-6.31,2.554.874.874,0,0,1-.421.109H25.5a.869.869,0,0,1-.62-1.477,36.664,36.664,0,0,1,11.674-8.025,36.544,36.544,0,0,1,28.622-.083A36.62,36.62,0,0,1,50.92,87.539,36.03,36.03,0,0,1,36.551,84.579ZM11.594,69.664a.869.869,0,0,1-.868-.868v-7.15a.869.869,0,0,1,.868-.868H36.619a.868.868,0,0,1,.868.868V68.8a.869.869,0,0,1-.868.868ZM50.977,58.787a8,8,0,1,1-.026-16.009,8.244,8.244,0,0,1,1.217.091l12.82-10.817a.869.869,0,0,1,1.14.016l1.623,1.451a.869.869,0,0,1,.148,1.123L58.695,48.7a8.12,8.12,0,0,1,.132,3.654,7.906,7.906,0,0,1-1.869,3.758,8.026,8.026,0,0,1-5.98,2.677ZM.868,55.363A.868.868,0,0,1,0,54.495v-7.15a.869.869,0,0,1,.868-.868h28.6a.869.869,0,0,1,.868.868v7.15a.868.868,0,0,1-.868.868Zm7.15-14.3a.869.869,0,0,1-.868-.869v-7.15a.868.868,0,0,1,.868-.868h28.6a.868.868,0,0,1,.868.868v7.15a.869.869,0,0,1-.868.869ZM80.765,23.5a.873.873,0,0,1-.618-.269,42.379,42.379,0,0,0-5.255-4.652.869.869,0,0,1-.094-1.309l5.03-5.03a.867.867,0,0,1,1.228,0l5.055,5.055a.868.868,0,0,1,0,1.228L81.39,23.24a.868.868,0,0,1-.614.255ZM57.925,11.356a39.116,39.116,0,0,0-14.011,0A.869.869,0,0,1,42.9,10.5V.868A.868.868,0,0,1,43.77,0h14.3a.869.869,0,0,1,.869.868V10.5a.869.869,0,0,1-.869.868A.828.828,0,0,1,57.925,11.356Z" transform="translate(36 31)" fill="#fff"/>
      <path id="Trazado_1" data-name="Trazado 1" d="M3-49.994a5,5,0,0,1,1.639-4.013,5.635,5.635,0,0,1,3.779-1.4H21.729a18.733,18.733,0,0,1,6.086,1,14.951,14.951,0,0,1,5.217,3.043,14.994,14.994,0,0,1,3.645,5.083,17.028,17.028,0,0,1,1.371,7.056,19.2,19.2,0,0,1-1.037,6.42,14.343,14.343,0,0,1-3.076,5.116,13.935,13.935,0,0,1-5.016,3.377,18.176,18.176,0,0,1-6.855,1.2H13.838v9.965A5.629,5.629,0,0,1,12.3-8.829,5.458,5.458,0,0,1,8.42-7.391,5.458,5.458,0,0,1,4.541-8.829,5.629,5.629,0,0,1,3-13.143ZM13.838-32.739h5.819a8.237,8.237,0,0,0,3.076-.535,6.571,6.571,0,0,0,2.24-1.438,6.119,6.119,0,0,0,1.371-2.073,6.513,6.513,0,0,0,.468-2.441,6.042,6.042,0,0,0-1.973-4.882,7.744,7.744,0,0,0-5.183-1.672H13.838Zm44.876-1.672a6.521,6.521,0,0,0-3.076.7A6.6,6.6,0,0,0,53.4-31.8a8.685,8.685,0,0,0-1.371,2.809,12.125,12.125,0,0,0-.468,3.411,12.125,12.125,0,0,0,.468,3.411A8.685,8.685,0,0,0,53.4-19.363a6.6,6.6,0,0,0,2.24,1.906,6.521,6.521,0,0,0,3.076.7,6.521,6.521,0,0,0,3.076-.7,6.6,6.6,0,0,0,2.24-1.906A8.685,8.685,0,0,0,65.4-22.172a12.125,12.125,0,0,0,.468-3.411,12.125,12.125,0,0,0-.468-3.411A8.685,8.685,0,0,0,64.031-31.8a6.6,6.6,0,0,0-2.24-1.906A6.521,6.521,0,0,0,58.714-34.411Zm0-10.032a17.2,17.2,0,0,1,7.19,1.471,16.745,16.745,0,0,1,5.551,4.013,18.135,18.135,0,0,1,3.578,5.986,21.183,21.183,0,0,1,1.271,7.39,21.183,21.183,0,0,1-1.271,7.39,18.135,18.135,0,0,1-3.578,5.986A16.745,16.745,0,0,1,65.9-8.194a17.2,17.2,0,0,1-7.19,1.471,17.2,17.2,0,0,1-7.19-1.471,16.745,16.745,0,0,1-5.551-4.013A18.135,18.135,0,0,1,42.4-18.192a21.183,21.183,0,0,1-1.271-7.39,21.183,21.183,0,0,1,1.271-7.39,18.135,18.135,0,0,1,3.578-5.986,16.745,16.745,0,0,1,5.551-4.013A17.2,17.2,0,0,1,58.714-44.443Zm22.338,6.086A5.489,5.489,0,0,1,82.49-42.2a4.879,4.879,0,0,1,3.779-1.572,5.021,5.021,0,0,1,3.411,1.1,7.008,7.008,0,0,1,1.806,2.24A8.048,8.048,0,0,1,95.2-43.406a13.291,13.291,0,0,1,5.25-1.037,15.645,15.645,0,0,1,5.016.936,10.152,10.152,0,0,1,4.682,3.344q.936-.669,2.006-1.438a18.154,18.154,0,0,1,2.307-1.4,14.187,14.187,0,0,1,2.675-1.037,11.532,11.532,0,0,1,3.11-.4,16.968,16.968,0,0,1,5.049.736,11.653,11.653,0,0,1,4.147,2.24,10.294,10.294,0,0,1,2.776,3.812,13.781,13.781,0,0,1,1,5.518v19.328a5.489,5.489,0,0,1-1.438,3.846A4.879,4.879,0,0,1,128-7.391a4.879,4.879,0,0,1-3.779-1.572,5.489,5.489,0,0,1-1.438-3.846V-29.328a7.436,7.436,0,0,0-1.338-4.381,4.444,4.444,0,0,0-3.879-1.906,4.444,4.444,0,0,0-3.879,1.906,7.436,7.436,0,0,0-1.338,4.381v16.519a5.489,5.489,0,0,1-1.438,3.846,4.879,4.879,0,0,1-3.779,1.572,4.879,4.879,0,0,1-3.779-1.572,5.489,5.489,0,0,1-1.438-3.846V-29.328a7.436,7.436,0,0,0-1.338-4.381A4.444,4.444,0,0,0,96.7-35.615a4.444,4.444,0,0,0-3.879,1.906,7.436,7.436,0,0,0-1.338,4.381v16.519a5.489,5.489,0,0,1-1.438,3.846,4.879,4.879,0,0,1-3.779,1.572A4.879,4.879,0,0,1,82.49-8.963a5.489,5.489,0,0,1-1.438-3.846Zm74.5,3.946a6.521,6.521,0,0,0-3.076.7,6.6,6.6,0,0,0-2.24,1.906,8.685,8.685,0,0,0-1.371,2.809,12.125,12.125,0,0,0-.468,3.411,12.125,12.125,0,0,0,.468,3.411,8.685,8.685,0,0,0,1.371,2.809,6.6,6.6,0,0,0,2.24,1.906,6.521,6.521,0,0,0,3.076.7,6.521,6.521,0,0,0,3.076-.7,6.6,6.6,0,0,0,2.24-1.906,8.685,8.685,0,0,0,1.371-2.809,12.125,12.125,0,0,0,.468-3.411,12.125,12.125,0,0,0-.468-3.411,8.685,8.685,0,0,0-1.371-2.809,6.6,6.6,0,0,0-2.24-1.906A6.521,6.521,0,0,0,155.556-34.411Zm0-10.032a17.2,17.2,0,0,1,7.19,1.471,16.745,16.745,0,0,1,5.551,4.013,18.135,18.135,0,0,1,3.578,5.986,21.183,21.183,0,0,1,1.271,7.39,21.183,21.183,0,0,1-1.271,7.39,18.135,18.135,0,0,1-3.578,5.986,16.745,16.745,0,0,1-5.551,4.013,17.2,17.2,0,0,1-7.19,1.471,17.2,17.2,0,0,1-7.19-1.471,16.745,16.745,0,0,1-5.551-4.013,18.135,18.135,0,0,1-3.578-5.986,21.183,21.183,0,0,1-1.271-7.39,21.183,21.183,0,0,1,1.271-7.39,18.135,18.135,0,0,1,3.578-5.986,16.745,16.745,0,0,1,5.551-4.013A17.2,17.2,0,0,1,155.556-44.443Zm38.523,10.032a6.521,6.521,0,0,0-3.076.7,6.6,6.6,0,0,0-2.24,1.906,8.685,8.685,0,0,0-1.371,2.809,12.125,12.125,0,0,0-.468,3.411,12.125,12.125,0,0,0,.468,3.411,8.685,8.685,0,0,0,1.371,2.809A6.6,6.6,0,0,0,191-17.457a6.521,6.521,0,0,0,3.076.7,6.521,6.521,0,0,0,3.076-.7,6.6,6.6,0,0,0,2.24-1.906,8.685,8.685,0,0,0,1.371-2.809,12.125,12.125,0,0,0,.468-3.411,12.125,12.125,0,0,0-.468-3.411A8.685,8.685,0,0,0,199.4-31.8a6.6,6.6,0,0,0-2.24-1.906A6.521,6.521,0,0,0,194.079-34.411Zm17.589,21.6a5.489,5.489,0,0,1-1.438,3.846,4.879,4.879,0,0,1-3.779,1.572,4.555,4.555,0,0,1-3.143-1.07,6.748,6.748,0,0,1-1.739-2.274,10.49,10.49,0,0,1-3.846,3.076,12.561,12.561,0,0,1-5.116.936,14.009,14.009,0,0,1-6.354-1.471,16.22,16.22,0,0,1-5.116-4.013,18.974,18.974,0,0,1-3.411-5.986,21.7,21.7,0,0,1-1.237-7.39,21.7,21.7,0,0,1,1.237-7.39,18.974,18.974,0,0,1,3.411-5.986,16.22,16.22,0,0,1,5.116-4.013,14.009,14.009,0,0,1,6.354-1.471,12.728,12.728,0,0,1,5.284.9,16.065,16.065,0,0,1,3.344,2.04V-53.873a5.489,5.489,0,0,1,1.438-3.846,4.879,4.879,0,0,1,3.779-1.572,4.879,4.879,0,0,1,3.779,1.572,5.489,5.489,0,0,1,1.438,3.846Zm22.137-21.6a6.521,6.521,0,0,0-3.076.7,6.6,6.6,0,0,0-2.24,1.906,8.685,8.685,0,0,0-1.371,2.809,12.125,12.125,0,0,0-.468,3.411,12.125,12.125,0,0,0,.468,3.411,8.685,8.685,0,0,0,1.371,2.809,6.6,6.6,0,0,0,2.24,1.906,6.521,6.521,0,0,0,3.076.7,6.521,6.521,0,0,0,3.076-.7,6.6,6.6,0,0,0,2.24-1.906,8.685,8.685,0,0,0,1.371-2.809,12.125,12.125,0,0,0,.468-3.411,12.125,12.125,0,0,0-.468-3.411,8.685,8.685,0,0,0-1.371-2.809,6.6,6.6,0,0,0-2.24-1.906A6.521,6.521,0,0,0,233.805-34.411Zm0-10.032a17.2,17.2,0,0,1,7.19,1.471,16.745,16.745,0,0,1,5.551,4.013,18.135,18.135,0,0,1,3.578,5.986,21.183,21.183,0,0,1,1.271,7.39,21.183,21.183,0,0,1-1.271,7.39,18.135,18.135,0,0,1-3.578,5.986,16.745,16.745,0,0,1-5.551,4.013,17.2,17.2,0,0,1-7.19,1.471,17.2,17.2,0,0,1-7.19-1.471,16.745,16.745,0,0,1-5.551-4.013,18.135,18.135,0,0,1-3.578-5.986,21.183,21.183,0,0,1-1.271-7.39,21.183,21.183,0,0,1,1.271-7.39,18.135,18.135,0,0,1,3.578-5.986,16.745,16.745,0,0,1,5.551-4.013A17.2,17.2,0,0,1,233.805-44.443Zm22.338,6.086a5.489,5.489,0,0,1,1.438-3.846,4.879,4.879,0,0,1,3.779-1.572,5.021,5.021,0,0,1,3.411,1.1,7.008,7.008,0,0,1,1.806,2.24,16.046,16.046,0,0,1,3.177-2.776,7.1,7.1,0,0,1,4.046-1.237,5.448,5.448,0,0,1,3.678,1.471,4.993,4.993,0,0,1,1.672,3.946,4.562,4.562,0,0,1-.5,2.24,4.425,4.425,0,0,1-1.371,1.5,9,9,0,0,1-2.073,1.037q-1.2.435-2.608.836a22.265,22.265,0,0,0-2.876,1.07,5.307,5.307,0,0,0-1.839,1.371,5.026,5.026,0,0,0-1,2.14,15.1,15.1,0,0,0-.3,3.311v12.707a5.489,5.489,0,0,1-1.438,3.846,4.879,4.879,0,0,1-3.779,1.572,4.879,4.879,0,0,1-3.779-1.572,5.489,5.489,0,0,1-1.438-3.846ZM296-34.411a6.521,6.521,0,0,0-3.076.7,6.6,6.6,0,0,0-2.24,1.906,8.684,8.684,0,0,0-1.371,2.809,12.124,12.124,0,0,0-.468,3.411,12.124,12.124,0,0,0,.468,3.411,8.684,8.684,0,0,0,1.371,2.809,6.6,6.6,0,0,0,2.24,1.906,6.521,6.521,0,0,0,3.076.7,6.521,6.521,0,0,0,3.076-.7,6.6,6.6,0,0,0,2.24-1.906,8.685,8.685,0,0,0,1.371-2.809,12.124,12.124,0,0,0,.468-3.411,12.124,12.124,0,0,0-.468-3.411,8.685,8.685,0,0,0-1.371-2.809,6.6,6.6,0,0,0-2.24-1.906A6.521,6.521,0,0,0,296-34.411Zm0-10.032a17.2,17.2,0,0,1,7.19,1.471,16.745,16.745,0,0,1,5.551,4.013,18.135,18.135,0,0,1,3.578,5.986,21.183,21.183,0,0,1,1.271,7.39,21.183,21.183,0,0,1-1.271,7.39,18.135,18.135,0,0,1-3.578,5.986,16.745,16.745,0,0,1-5.551,4.013A17.2,17.2,0,0,1,296-6.722a17.2,17.2,0,0,1-7.19-1.471,16.745,16.745,0,0,1-5.551-4.013,18.134,18.134,0,0,1-3.578-5.986,21.183,21.183,0,0,1-1.271-7.39,21.183,21.183,0,0,1,1.271-7.39,18.134,18.134,0,0,1,3.578-5.986,16.745,16.745,0,0,1,5.551-4.013A17.2,17.2,0,0,1,296-44.443Z" transform="translate(141.571 115.479)" fill="#fff"/>
    </g>
  </g>
</svg>
